<svg width="150" height="150" xmlns="http://www.w3.org/2000/svg" xmlns:xlink="http://www.w3.org/1999/xlink" preserveAspectRatio="none">
 <defs>
  <g id="Layer0_0_MEMBER_0_FILL">
   <path id="svg_1" d="m105.35,135.5l-5.05,0l0,45.15l5.05,0l0,-45.15z" fill="#BED8D4"/>
  </g>
  <g id="Layer0_0_MEMBER_1_FILL">
   <path id="svg_2" d="m115.4,135.5l-5.1,0l0,45.15l5.1,0l0,-45.15z" fill="#BED8D4"/>
  </g>
  <g id="Layer0_0_MEMBER_2_FILL">
   <path id="svg_3" d="m120.35,135.5l0,45.15l5.1,0l0,-45.15l-5.1,0z" fill="#BED8D4"/>
  </g>
  <g id="Layer0_0_MEMBER_3_FILL">
   <path id="svg_4" d="m135.45,135.5l-5.05,0l0,45.15l5.05,0l0,-45.15z" fill="#BED8D4"/>
  </g>
  <g id="Layer0_0_MEMBER_4_FILL">
   <path id="svg_5" d="m145.5,135.5l-5.1,0l0,45.15l5.1,0l0,-45.15z" fill="#BED8D4"/>
  </g>
  <g id="Layer0_0_MEMBER_5_FILL">
   <path id="svg_6" d="m194.95,180.7l0,-5.1l-45.15,0l0,5.1l45.15,0z" fill="#BED8D4"/>
  </g>
  <g id="Layer0_0_MEMBER_6_FILL">
   <path id="svg_7" d="m194.95,170.65l0,-5.1l-45.15,0l0,5.1l45.15,0z" fill="#BED8D4"/>
  </g>
  <g id="Layer0_0_MEMBER_7_FILL">
   <path id="svg_8" d="m194.95,160.6l0,-5.05l-45.15,0l0,5.05l45.15,0z" fill="#BED8D4"/>
  </g>
  <g id="Layer0_0_MEMBER_8_FILL">
   <path id="svg_9" d="m194.95,150.6l0,-5.1l-45.15,0l0,5.1l45.15,0z" fill="#BED8D4"/>
  </g>
  <g id="Layer0_0_MEMBER_9_FILL">
   <path id="svg_10" d="m194.95,140.55l0,-5.1l-45.15,0l0,5.1l45.15,0z" fill="#BED8D4"/>
  </g>
  <g id="Layer0_0_MEMBER_10_FILL">
   <path id="svg_11" d="m194.95,180.7l-5.1,0l0,45.15l5.1,0l0,-45.15z" fill="#BED8D4"/>
  </g>
  <g id="Layer0_0_MEMBER_11_FILL">
   <path id="svg_12" d="m184.9,180.7l-5.1,0l0,45.15l5.1,0l0,-45.15z" fill="#BED8D4"/>
  </g>
  <g id="Layer0_0_MEMBER_12_FILL">
   <path id="svg_13" d="m174.85,180.7l-5.05,0l0,45.15l5.05,0l0,-45.15z" fill="#BED8D4"/>
  </g>
  <g id="Layer0_0_MEMBER_13_FILL">
   <path id="svg_14" d="m164.85,225.85l0,-45.15l-5.1,0l0,45.15l5.1,0z" fill="#BED8D4"/>
  </g>
  <g id="Layer0_0_MEMBER_14_FILL">
   <path id="svg_15" d="m154.8,180.7l-5.1,0l0,45.15l5.1,0l0,-45.15z" fill="#BED8D4"/>
  </g>
  <g id="Layer0_0_MEMBER_15_FILL">
   <path id="svg_16" d="m145.45,225.9l0,-5.1l-45.15,0l0,5.1l45.15,0z" fill="#BED8D4"/>
  </g>
  <g id="Layer0_0_MEMBER_16_FILL">
   <path id="svg_17" d="m145.45,215.85l0,-5.05l-45.15,0l0,5.05l45.15,0z" fill="#BED8D4"/>
  </g>
  <g id="Layer0_0_MEMBER_17_FILL">
   <path id="svg_18" d="m145.45,205.85l0,-5.1l-45.15,0l0,5.1l45.15,0z" fill="#BED8D4"/>
  </g>
  <g id="Layer0_0_MEMBER_18_FILL">
   <path id="svg_19" d="m100.3,190.7l0,5.1l45.15,0l0,-5.1l-45.15,0z" fill="#BED8D4"/>
  </g>
  <g id="Layer0_0_MEMBER_19_FILL">
   <path id="svg_20" d="m100.3,180.7l0,5.05l45.15,0l0,-5.05l-45.15,0z" fill="#BED8D4"/>
  </g>
 </defs>
 <g>
  <title>background</title>
  <rect fill="none" id="canvas_background" height="152" width="152" y="-1" x="-1"/>
 </g>
 <g>
  <title>Layer 1</title>
  <g id="svg_61">
   <g id="svg_21">
    <use y="-105.674995" x="-72.625" id="svg_22" xlink:href="#Layer0_0_MEMBER_0_FILL"/>
   </g>
   <g id="svg_23">
    <use y="-105.674995" x="-72.625" id="svg_24" xlink:href="#Layer0_0_MEMBER_1_FILL"/>
   </g>
   <g id="svg_25">
    <use y="-105.674995" x="-72.625" id="svg_26" xlink:href="#Layer0_0_MEMBER_2_FILL"/>
   </g>
   <g id="svg_27">
    <use y="-105.674995" x="-72.625" id="svg_28" xlink:href="#Layer0_0_MEMBER_3_FILL"/>
   </g>
   <g id="svg_29">
    <use y="-105.674995" x="-72.625" id="svg_30" xlink:href="#Layer0_0_MEMBER_4_FILL"/>
   </g>
   <g id="svg_31">
    <use y="-105.674995" x="-72.625" id="svg_32" xlink:href="#Layer0_0_MEMBER_5_FILL"/>
   </g>
   <g id="svg_33">
    <use y="-105.674995" x="-72.625" id="svg_34" xlink:href="#Layer0_0_MEMBER_6_FILL"/>
   </g>
   <g id="svg_35">
    <use y="-105.674995" x="-72.625" id="svg_36" xlink:href="#Layer0_0_MEMBER_7_FILL"/>
   </g>
   <g id="svg_37">
    <use y="-105.674995" x="-72.625" id="svg_38" xlink:href="#Layer0_0_MEMBER_8_FILL"/>
   </g>
   <g id="svg_39">
    <use y="-105.674995" x="-72.625" id="svg_40" xlink:href="#Layer0_0_MEMBER_9_FILL"/>
   </g>
   <g id="svg_41">
    <use y="-105.674995" x="-72.625" id="svg_42" xlink:href="#Layer0_0_MEMBER_10_FILL"/>
   </g>
   <g id="svg_43">
    <use y="-105.674995" x="-72.625" id="svg_44" xlink:href="#Layer0_0_MEMBER_11_FILL"/>
   </g>
   <g id="svg_45">
    <use y="-105.674995" x="-72.625" id="svg_46" xlink:href="#Layer0_0_MEMBER_12_FILL"/>
   </g>
   <g id="svg_47">
    <use y="-105.674995" x="-72.625" id="svg_48" xlink:href="#Layer0_0_MEMBER_13_FILL"/>
   </g>
   <g id="svg_49">
    <use y="-105.674995" x="-72.625" id="svg_50" xlink:href="#Layer0_0_MEMBER_14_FILL"/>
   </g>
   <g id="svg_51">
    <use y="-105.674995" x="-72.625" id="svg_52" xlink:href="#Layer0_0_MEMBER_15_FILL"/>
   </g>
   <g id="svg_53">
    <use y="-105.674995" x="-72.625" id="svg_54" xlink:href="#Layer0_0_MEMBER_16_FILL"/>
   </g>
   <g id="svg_55">
    <use y="-105.674995" x="-72.625" id="svg_56" xlink:href="#Layer0_0_MEMBER_17_FILL"/>
   </g>
   <g id="svg_57">
    <use y="-105.674995" x="-72.625" id="svg_58" xlink:href="#Layer0_0_MEMBER_18_FILL"/>
   </g>
   <g id="svg_59">
    <use y="-105.674995" x="-72.625" id="svg_60" xlink:href="#Layer0_0_MEMBER_19_FILL"/>
   </g>
  </g>
 </g>
</svg>